<?xml version="1.0" standalone="no"?>
<!DOCTYPE svg PUBLIC "-//W3C//DTD SVG 20010904//EN"
 "http://www.w3.org/TR/2001/REC-SVG-20010904/DTD/svg10.dtd">
<svg version="1.0" xmlns="http://www.w3.org/2000/svg" width="4375.000000pt" height="2688.000000pt" viewBox="0 0 4375.000000 2688.000000" preserveAspectRatio="xMidYMid meet">

<g transform="translate(0.000000,2688.000000) scale(0.100000,-0.100000)" fill="#000000" stroke="none">
<path d="M28473 26330 c-85 -51 -81 -179 6 -225 61 -31 136 -11 171 48 70 114
-63 247 -177 177z"></path>
<path d="M26715 25645 c-98 -64 -119 -181 -49 -265 36 -42 74 -60 129 -60 79
0 138 42 173 123 27 64 1 144 -64 193 -53 41 -135 45 -189 9z"></path>
<path d="M27706 25539 c-34 -40 -33 -64 3 -100 l29 -29 807 0 806 0 24 26 c33
35 32 74 -1 108 l-27 26 -807 0 -808 0 -26 -31z"></path>
<path d="M23725 24226 l-25 -25 0 -263 c-1 -846 -32 -2749 -47 -2838 -5 -33
-6 -34 -14 -11 -5 13 -14 114 -19 225 -14 263 -23 354 -42 391 -8 17 -18 71
-22 120 -3 50 -10 104 -14 120 l-9 30 -13 -24 c-10 -19 -11 -51 -5 -130 4 -59
9 -216 11 -351 2 -135 8 -418 13 -630 14 -559 -9 -1005 -65 -1235 -13 -56 -24
-112 -24 -126 0 -14 -7 -48 -15 -75 -8 -27 -18 -86 -24 -132 -5 -45 -13 -88
-19 -95 -5 -6 -17 -35 -26 -63 -9 -29 -25 -59 -35 -68 -11 -10 -17 -25 -14
-37 7 -25 -16 -79 -33 -79 -7 0 -21 -16 -30 -35 -9 -19 -20 -35 -25 -35 -5 0
-9 -11 -9 -24 0 -14 -10 -30 -25 -40 -14 -9 -25 -25 -25 -35 0 -25 -55 -98
-79 -106 -14 -4 -21 -15 -21 -30 0 -17 -13 -33 -45 -55 -25 -17 -45 -35 -45
-41 0 -5 -11 -19 -25 -31 -29 -25 -31 -34 -10 -54 17 -17 20 -54 5 -54 -5 0
-10 4 -10 10 0 5 -6 7 -13 4 -8 -3 -12 -16 -9 -33 3 -21 -2 -33 -18 -44 -16
-11 -21 -22 -17 -37 3 -12 1 -32 -5 -45 -9 -20 -14 -22 -41 -14 -39 11 -43 7
-22 -24 21 -32 16 -79 -7 -83 -10 -1 -20 2 -24 7 -7 12 -44 12 -44 0 0 -5 9
-11 20 -14 24 -6 27 -48 5 -67 -19 -15 -45 -6 -45 16 0 14 -7 16 -47 9 -27 -3
-63 -6 -80 -6 -18 1 -33 -4 -33 -9 0 -6 15 -10 33 -10 35 0 77 -23 65 -36 -4
-4 -42 -7 -84 -8 -78 -1 -84 -4 -97 -47 -8 -25 -90 -44 -126 -29 -16 6 -41 10
-57 8 -26 -3 -27 -4 -11 -20 17 -16 16 -18 -2 -28 -11 -5 -69 -10 -129 -10
-90 0 -118 4 -157 21 -58 26 -187 38 -268 26 -47 -7 -63 -6 -82 7 -13 9 -37
16 -53 16 -15 0 -46 9 -67 20 -22 11 -69 26 -105 32 -36 6 -76 17 -90 23 -14
7 -36 9 -50 5 -25 -6 -140 29 -168 52 -26 22 -24 -3 4 -42 16 -23 36 -53 45
-68 8 -15 42 -40 75 -57 32 -16 79 -44 104 -62 25 -18 61 -41 81 -52 22 -12
39 -30 43 -46 5 -19 13 -25 32 -25 32 0 70 -27 134 -94 28 -30 74 -64 107 -80
32 -16 82 -40 111 -54 29 -13 62 -37 72 -51 36 -48 41 -51 84 -63 31 -8 55
-24 82 -56 21 -25 52 -56 68 -71 16 -14 57 -54 91 -88 60 -60 95 -78 95 -50 0
7 -7 22 -15 33 -25 34 -19 70 18 93 17 11 48 31 67 45 48 32 100 131 104 199
4 49 7 55 57 97 72 61 199 188 199 200 0 5 13 24 29 42 15 18 43 67 60 108 17
41 36 82 41 90 15 22 26 47 55 125 15 39 45 107 66 153 21 45 39 87 39 92 0
27 69 34 71 6 0 -6 -1 -463 -2 -1016 -1 -553 -1 -1021 -1 -1040 1 -47 -18
-130 -29 -130 -5 0 -9 4 -9 8 0 5 -6 16 -13 25 -11 16 -16 15 -69 -13 -62 -33
-83 -32 -74 5 5 20 1 24 -27 30 -17 4 -38 12 -44 17 -8 7 -23 6 -44 -1 -18 -6
-48 -11 -68 -11 -35 0 -35 0 -13 -16 26 -18 29 -49 6 -58 -25 -10 -32 -8 -68
24 -27 24 -40 29 -60 24 -31 -8 -31 -8 -4 -53 55 -94 92 -143 124 -169 31 -25
34 -32 34 -79 0 -51 -1 -53 -27 -53 -47 0 -58 -13 -43 -49 9 -22 11 -52 6 -97
l-7 -66 39 -37 c32 -31 40 -47 46 -88 5 -40 3 -55 -9 -67 -20 -20 -26 -20 -68
0 -33 16 -35 15 -75 -10 -23 -14 -42 -30 -42 -35 0 -5 -12 -12 -27 -16 -16 -3
-38 -16 -50 -27 -20 -19 -22 -19 -46 -3 -20 13 -30 14 -46 5 -12 -6 -21 -17
-21 -25 0 -17 -33 -20 -61 -5 -23 13 -59 -3 -59 -26 0 -19 -40 -34 -61 -23
-24 12 -32 55 -15 82 18 27 33 153 18 143 -18 -11 -43 -69 -53 -121 -17 -95
-27 -130 -60 -210 -45 -112 -94 -207 -150 -295 -59 -91 -51 -82 -133 -153 -69
-61 -82 -91 -43 -101 17 -4 30 -23 50 -75 47 -120 53 -181 34 -347 -9 -78 -8
-97 6 -133 20 -48 21 -105 6 -183 -9 -45 -8 -65 5 -111 9 -30 16 -75 16 -100
0 -28 7 -53 19 -68 10 -13 21 -42 25 -64 4 -21 13 -51 20 -65 17 -33 50 -197
62 -300 3 -30 14 -76 25 -102 10 -26 19 -68 19 -95 0 -26 5 -77 12 -113 6 -36
11 -95 9 -132 -2 -60 0 -70 22 -92 14 -14 43 -30 66 -36 42 -11 79 -31 201
-109 36 -22 88 -54 115 -71 28 -16 69 -48 91 -72 40 -42 147 -177 191 -241 12
-18 36 -46 52 -64 16 -17 48 -67 71 -110 22 -43 47 -89 55 -103 37 -64 114
-242 121 -276 4 -22 12 -50 19 -63 l12 -25 12 22 c8 15 12 279 16 924 14 2568
17 2975 20 3108 17 680 51 1277 76 1304 5 6 9 20 9 32 0 12 6 37 14 55 7 19
17 86 21 149 4 63 14 183 23 265 16 145 18 150 39 147 28 -4 30 6 43 158 5 63
14 174 20 245 6 72 18 164 26 205 9 41 19 100 23 130 3 30 17 87 30 125 36
110 41 130 41 157 0 14 4 38 9 54 9 28 33 133 51 224 12 57 26 239 40 490 24
436 36 344 49 -381 16 -869 31 -4843 31 -8555 l0 -3201 23 -21 23 -22 4794 0
4795 0 24 24 24 24 4 2444 c6 2997 6 1828 -5 8701 l-9 5858 -22 22 -22 22
-2087 3 c-1148 2 -3303 6 -4790 8 l-2703 4 -24 -24z m9553 -42 c12 -4 22 -10
22 -15 0 -5 -2005 -8 -4747 -7 -4177 3 -4426 3 -2071 8 1472 3 2680 8 2684 13
9 8 4079 10 4112 1z m-10688 -6234 c12 -8 11 -10 -7 -10 -13 0 -23 5 -23 10 0
13 11 13 30 0z m-849 -76 c29 -10 59 -13 87 -9 33 5 48 2 71 -14 16 -12 40
-21 53 -21 12 0 41 -7 63 -15 22 -8 57 -14 78 -15 21 0 54 -7 74 -15 20 -8 51
-17 70 -19 19 -3 40 -10 47 -15 8 -6 35 -18 62 -26 52 -15 108 -59 101 -78 -5
-17 -56 -21 -84 -6 -31 16 -44 1 -15 -18 12 -9 22 -22 22 -29 0 -7 14 -20 30
-29 34 -17 40 -52 13 -62 -26 -9 -83 -69 -83 -87 0 -19 -47 -56 -73 -56 -11 0
-36 4 -56 10 -20 5 -48 12 -63 15 -20 4 -28 12 -28 26 0 25 25 35 56 21 13 -7
24 -8 24 -3 0 5 -20 14 -44 20 -25 6 -47 15 -50 20 -4 5 -26 19 -51 31 -54 26
-62 56 -13 46 35 -7 98 2 98 14 0 6 -59 28 -95 36 -71 15 -96 27 -111 56 -10
19 -12 33 -6 37 32 20 11 78 -31 86 -89 17 -201 47 -218 58 -19 12 -25 37 -12
50 10 11 37 8 84 -9z m146 -190 c2 -6 -6 -11 -18 -10 -12 0 -24 7 -27 14 -3 9
3 13 19 10 12 -1 24 -8 26 -14z m1003 -1814 c0 -5 -4 -10 -10 -10 -5 0 -10 5
-10 10 0 6 5 10 10 10 6 0 10 -4 10 -10z m-551 -621 c36 -13 36 -28 -1 -47
-19 -9 -34 -9 -52 -2 -32 12 -34 38 -3 50 12 5 22 9 23 9 1 1 15 -4 33 -10z
m-137 -51 c2 -13 16 -29 33 -38 l30 -15 -45 -5 c-41 -5 -45 -8 -48 -35 -4 -34
-21 -49 -39 -33 -10 8 -10 16 2 38 9 17 12 41 8 63 -4 29 -2 36 13 40 36 9 43
7 46 -15z"></path>
<path d="M23116 23512 c-2 -4 -1 -14 5 -22 7 -12 9 -10 9 8 0 23 -5 28 -14 14z"></path>
<path d="M33975 23339 c-16 -25 -24 -263 -25 -718 -1 -510 0 -523 46 -480 29
27 42 18 24 -15 -10 -20 -10 -31 4 -68 15 -39 16 -108 12 -733 -3 -379 -5
-716 -6 -747 0 -62 -4 -67 -31 -42 -10 9 -25 14 -33 11 -21 -8 -28 -383 -7
-404 16 -17 31 -12 139 38 45 21 86 39 91 39 5 0 36 15 70 34 33 19 70 37 83
41 13 4 37 15 53 25 26 16 144 77 316 165 25 13 74 46 109 74 35 28 67 51 72
51 4 0 35 21 69 48 67 51 184 134 265 187 28 19 58 45 68 59 9 14 24 26 34 26
10 0 47 29 82 65 60 60 63 65 38 65 -21 0 -27 6 -32 34 -6 31 -2 39 34 76 28
29 39 47 35 60 -3 10 -1 21 5 25 5 3 10 -3 10 -14 0 -39 25 -10 45 52 16 51
24 62 42 62 29 1 143 119 143 148 0 24 45 95 85 134 14 14 25 33 25 42 0 9 15
26 34 38 31 20 34 27 39 80 9 88 7 163 -4 163 -15 0 -10 28 8 50 10 11 23 20
30 20 16 0 17 31 2 64 -10 21 -15 23 -35 16 -27 -11 -29 -8 -39 48 -5 34 -13
46 -33 55 -15 6 -30 16 -33 20 -4 5 -15 7 -25 5 -16 -3 -19 -12 -18 -61 1 -32
-1 -56 -3 -53 -9 8 -51 -36 -57 -60 -5 -17 -13 -24 -31 -24 -19 0 -28 -7 -35
-27 -25 -69 -23 -68 -60 -15 -41 61 -65 60 -55 -2 3 -23 7 -59 8 -81 2 -34 -1
-40 -18 -40 -17 0 -20 7 -20 50 0 43 -3 50 -21 53 -16 2 -23 -4 -29 -25 l-7
-28 -9 23 c-11 28 -3 67 17 83 19 15 18 43 -2 60 -13 11 -17 10 -25 -4 -16
-29 -35 -19 -60 30 -14 25 -30 48 -37 51 -20 6 -14 -46 9 -78 16 -20 20 -36
15 -55 -10 -38 -40 -29 -44 13 -3 25 -10 35 -30 43 -15 6 -30 15 -34 22 -13
21 -19 0 -8 -28 14 -37 0 -52 -45 -47 -29 4 -35 8 -29 21 11 26 7 59 -9 76
-22 22 -30 19 -23 -10 8 -33 -14 -42 -45 -18 -55 43 -90 85 -84 103 3 10 0 22
-6 26 -9 5 -10 2 -6 -9 3 -10 2 -17 -4 -17 -5 0 -9 16 -7 36 3 33 -1 39 -37
61 -22 13 -47 26 -55 29 -8 3 -25 10 -36 16 -12 5 -30 8 -40 5 -14 -3 -11 -6
14 -12 17 -4 32 -14 32 -21 0 -8 11 -19 25 -24 14 -5 25 -16 25 -25 0 -21 -44
-19 -78 3 -15 10 -36 23 -47 28 -25 14 -32 44 -11 44 21 0 20 10 -3 38 -12 13
-31 22 -48 22 -15 1 -39 7 -52 14 -13 7 -33 11 -44 8 -14 -3 -18 -1 -13 6 4 7
17 12 30 12 24 0 61 32 49 43 -3 4 -23 7 -44 7 -52 0 -71 31 -39 65 l22 23
-24 15 c-12 8 -43 18 -68 22 -84 12 -101 17 -97 28 2 7 18 14 36 17 17 3 33 9
34 14 2 8 -79 43 -122 52 -43 9 -63 24 -55 42 18 44 5 65 -51 85 -6 2 -5 10 3
20 12 14 8 18 -25 36 -52 26 -57 34 -77 115 -12 49 -24 75 -42 89 -17 13 -24
26 -21 39 4 14 -9 34 -44 69 -27 27 -49 57 -49 67 0 26 -35 58 -45 41z m1807
-1471 c-15 -15 -26 -4 -18 18 5 13 9 15 18 6 9 -9 9 -15 0 -24z m33 -187 c-3
-6 -11 -8 -17 -5 -6 4 -5 9 3 15 16 10 23 4 14 -10z"></path>
<path d="M34380 22810 c0 -5 9 -10 21 -10 11 0 17 5 14 10 -3 6 -13 10 -21 10
-8 0 -14 -4 -14 -10z"></path>
<path d="M34825 22441 c-3 -5 -1 -12 5 -16 5 -3 10 1 10 9 0 18 -6 21 -15 7z"></path>
<path d="M35160 22238 c1 -17 49 -72 57 -64 3 3 -1 14 -10 24 -10 10 -17 26
-17 35 0 9 -7 17 -15 17 -8 0 -15 -6 -15 -12z"></path>
<path d="M35010 22218 c1 -24 29 -50 63 -58 31 -7 34 -5 29 12 -5 20 -57 58
-79 58 -7 0 -13 -6 -13 -12z"></path>
<path d="M35412 22190 c13 -20 28 -27 28 -12 0 4 -9 13 -20 20 -19 12 -20 11
-8 -8z"></path>
<path d="M35635 22110 c-4 -6 -1 -18 6 -26 12 -14 14 -14 26 2 7 10 13 21 13
26 0 12 -38 10 -45 -2z"></path>
<path d="M34036 20077 l-89 -10 6 -276 c3 -152 9 -286 13 -298 10 -37 32 -27
44 20 23 89 85 213 136 267 73 78 92 97 144 138 121 95 175 125 260 143 30 7
59 16 65 21 13 11 -469 7 -579 -5z"></path>
<path d="M21925 18110 c3 -5 18 -10 33 -10 21 0 24 2 12 10 -20 13 -53 13 -45
0z"></path>
<path d="M21555 18071 c-8 -14 32 -33 55 -26 11 4 20 10 20 15 0 18 -64 28
-75 11z"></path>
<path d="M21736 18051 c-4 -5 9 -19 27 -30 26 -16 41 -19 63 -12 16 4 42 4 59
0 16 -5 33 -5 39 1 5 5 -7 11 -30 15 -22 4 -59 13 -83 21 -52 16 -68 17 -75 5z"></path>
<path d="M34773 17728 c-17 -8 -23 -20 -23 -45 0 -38 -27 -47 -32 -10 -6 42
-40 32 -73 -23 -33 -54 -40 -58 -66 -34 -16 14 -19 13 -37 -7 -14 -14 -28 -20
-41 -16 -11 3 -25 -1 -31 -8 -6 -7 -21 -16 -33 -19 -12 -3 -33 -22 -46 -41
l-24 -36 22 -30 c28 -37 24 -71 -8 -79 -13 -3 -28 -14 -32 -25 -7 -18 -8 -18
-9 5 -1 14 -4 19 -7 13 -2 -7 -18 -13 -35 -13 -25 0 -29 -3 -23 -17 23 -56 17
-65 -24 -37 -17 12 -26 13 -34 5 -14 -14 -54 -14 -62 -1 -3 6 -18 10 -32 10
-45 0 -110 38 -127 74 -9 19 -16 41 -16 49 0 8 -17 37 -39 64 -21 27 -42 60
-46 74 -10 32 -25 50 -36 43 -16 -9 -10 -73 15 -162 28 -98 43 -275 54 -624 4
-123 11 -221 17 -225 6 -5 111 -6 234 -2 l223 7 87 -46 c47 -25 104 -58 126
-72 22 -15 51 -31 65 -35 14 -4 54 -22 90 -39 75 -37 124 -48 305 -72 153 -20
374 -15 471 10 33 9 96 20 140 25 109 11 250 40 306 63 26 10 76 21 110 25 38
3 73 13 87 25 13 10 29 18 36 18 6 0 20 9 30 20 10 11 26 20 35 20 10 0 31 7
46 15 16 8 37 15 46 15 25 0 31 18 11 29 -19 9 -53 91 -53 124 0 16 -12 38
-75 144 -12 19 -34 37 -51 43 -30 10 -32 14 -31 58 0 65 -3 71 -47 117 -21 22
-49 57 -62 78 -13 20 -28 37 -33 37 -5 0 -11 13 -14 30 -5 22 -16 34 -44 46
-21 9 -49 16 -61 15 -32 -1 -82 35 -82 60 0 11 -5 40 -11 65 -10 40 -14 45
-33 39 -60 -19 -65 -18 -103 21 -21 21 -46 37 -55 36 -9 -2 -46 6 -81 17 -63
19 -80 20 -144 6 -26 -6 -33 -3 -43 15 -6 11 -9 33 -7 48 2 15 2 23 0 17 -2
-6 -29 -9 -62 -7 -32 2 -76 -1 -97 -7 -21 -6 -40 -8 -43 -6 -2 3 1 22 7 43 10
32 9 39 -5 50 -20 15 -63 16 -63 2 0 -12 -46 -6 -63 8 -17 13 -57 21 -57 12 0
-5 -15 -4 -32 1 -45 13 -58 11 -58 -5 0 -18 -6 -22 -49 -31 -32 -7 -34 -6 -29
19 6 28 -3 31 -39 14z"></path>
<path d="M20892 17650 c-25 -4 -53 -17 -70 -32 -15 -14 -39 -28 -54 -32 -34
-8 -37 -35 -8 -61 24 -22 25 -38 5 -55 -29 -24 -9 -78 30 -84 16 -2 19 -10 16
-48 -2 -39 1 -46 19 -51 12 -3 20 -11 18 -18 -7 -22 -25 -21 -47 2 -12 13 -21
20 -21 16 0 -3 -12 5 -27 19 -62 58 -26 -40 48 -129 14 -18 31 -42 38 -55 7
-12 30 -30 52 -38 26 -11 39 -22 39 -35 0 -14 14 -26 45 -39 41 -17 45 -22 45
-53 0 -40 23 -60 82 -71 22 -4 39 -14 42 -24 3 -9 28 -32 55 -50 27 -19 61
-47 77 -63 31 -32 59 -38 68 -13 9 25 7 34 -9 34 -17 0 -39 36 -29 51 3 6 17
14 30 19 37 15 31 42 -8 38 -28 -2 -34 1 -36 19 -3 17 3 24 22 29 30 7 33 25
10 49 -12 12 -13 19 -5 29 8 10 6 19 -9 39 -11 14 -20 37 -20 52 0 24 -3 26
-30 20 -47 -10 -39 26 15 71 50 41 53 49 25 82 -18 22 -23 23 -62 14 -24 -6
-63 -18 -87 -27 -24 -9 -46 -13 -49 -11 -8 8 19 36 50 52 21 11 28 22 28 45 0
20 -4 28 -11 23 -7 -4 -10 -1 -7 7 3 8 14 15 26 17 24 4 29 31 10 50 -7 7 -34
12 -60 12 -36 0 -50 4 -55 17 -10 25 34 56 66 47 41 -11 74 -10 78 3 6 16 -36
37 -68 35 -14 -1 -35 7 -47 18 -11 11 -26 20 -33 20 -7 0 -9 10 -6 25 3 18 -1
29 -14 35 -26 15 -49 12 -49 -5 0 -14 12 -19 33 -16 4 0 7 -6 7 -14 0 -8 -6
-15 -12 -15 -7 0 -23 -3 -35 -6 -18 -5 -22 -1 -25 21 -4 34 -28 43 -86 35z
m208 -291 c0 -10 -80 -40 -91 -34 -13 9 -11 32 4 39 17 7 87 3 87 -5z m-93
-255 c-3 -3 -12 -4 -19 -1 -8 3 -5 6 6 6 11 1 17 -2 13 -5z m263 -76 c0 -6 7
-20 16 -30 14 -14 14 -20 4 -33 -17 -21 -29 -19 -51 8 -22 26 -23 39 -7 55 15
15 38 16 38 0z m-120 -57 c0 -5 -9 -7 -20 -4 -11 3 -20 7 -20 9 0 2 9 4 20 4
11 0 20 -4 20 -9z"></path>
<path d="M21270 17367 c0 -24 26 -51 44 -44 21 8 21 43 0 51 -26 10 -44 7 -44
-7z"></path>
<path d="M22364 17023 c14 -59 23 -178 16 -203 -4 -15 -11 -69 -15 -121 -3
-52 -10 -110 -15 -129 -5 -19 -12 -73 -15 -120 -7 -77 -6 -83 9 -71 9 7 16 25
16 39 0 14 4 39 10 56 31 100 42 173 47 300 5 116 3 148 -10 176 -8 19 -18 50
-22 68 -4 17 -11 32 -17 32 -6 0 -8 -11 -4 -27z"></path>
<path d="M21570 16770 c0 -5 5 -10 10 -10 6 0 10 5 10 10 0 6 -4 10 -10 10 -5
0 -10 -4 -10 -10z"></path>
<path d="M21026 16431 c-8 -12 23 -37 76 -61 26 -11 50 -25 54 -31 8 -13 83
-48 102 -49 8 0 12 9 10 21 -2 15 -17 27 -53 40 -28 10 -67 35 -88 54 -36 34
-88 48 -101 26z"></path>
<path d="M22295 16136 c-8 -49 -4 -63 14 -51 13 8 14 64 2 84 -7 10 -11 1 -16
-33z"></path>
<path d="M33975 16130 c-20 -32 -25 -204 -26 -832 0 -383 3 -708 6 -722 3 -14
7 -37 10 -51 9 -42 33 -28 65 37 17 34 46 80 64 103 18 22 45 64 60 93 14 28
30 52 34 52 5 0 15 11 22 25 7 14 46 51 86 82 73 58 140 91 201 100 20 3 33
12 36 24 6 22 39 38 45 21 5 -16 39 -15 45 1 3 7 38 26 78 42 41 16 79 32 84
36 6 4 29 2 52 -4 35 -9 45 -8 60 5 31 26 64 29 95 7 39 -28 81 -19 72 15 -5
20 0 25 27 35 17 6 51 11 75 11 42 0 134 36 134 52 0 14 57 8 102 -10 24 -11
58 -22 76 -25 44 -9 42 9 -8 66 -39 44 -51 65 -29 51 21 -13 74 -14 89 -1 8 6
21 24 29 40 14 26 51 38 51 16 0 -6 16 -9 39 -8 30 2 46 -3 70 -24 18 -15 36
-27 41 -27 5 0 16 -3 26 -7 15 -6 15 -2 -4 25 -13 17 -33 34 -45 38 -12 4 -41
23 -64 43 -58 50 -100 81 -110 81 -4 0 -35 18 -68 40 -45 30 -69 40 -101 40
-28 0 -46 6 -59 20 -10 11 -22 20 -27 20 -5 0 -24 11 -41 24 -34 25 -232 116
-253 116 -26 0 -64 24 -64 40 0 17 -99 69 -175 91 -22 6 -76 24 -120 39 -44
16 -96 32 -115 35 -19 4 -46 13 -60 19 -14 7 -61 18 -105 25 -86 14 -134 28
-205 60 -25 11 -60 21 -78 21 -18 0 -49 7 -69 15 -42 18 -40 18 -48 5z"></path>
<path d="M22256 15794 c-4 -9 -4 -19 -1 -22 2 -3 7 3 11 12 4 9 4 19 1 22 -2
3 -7 -3 -11 -12z"></path>
<path d="M22220 15645 c0 -8 5 -15 10 -15 6 0 10 7 10 15 0 8 -4 15 -10 15 -5
0 -10 -7 -10 -15z"></path>
<path d="M22491 15444 c0 -11 3 -14 6 -6 3 7 2 16 -1 19 -3 4 -6 -2 -5 -13z"></path>
<path d="M35933 15215 c8 -16 18 -38 21 -47 5 -18 46 -26 46 -10 0 4 -19 26
-41 47 -40 38 -41 39 -26 10z"></path>
<path d="M36075 15020 c3 -5 8 -10 11 -10 2 0 4 5 4 10 0 6 -5 10 -11 10 -5 0
-7 -4 -4 -10z"></path>
<path d="M34545 15010 c-3 -5 1 -10 9 -10 9 0 16 5 16 10 0 6 -4 10 -9 10 -6
0 -13 -4 -16 -10z"></path>
<path d="M36160 14955 c0 -17 48 -70 56 -62 4 4 -6 22 -24 40 -18 17 -32 27
-32 22z"></path>
<path d="M36466 14250 c8 -43 14 -51 14 -19 0 13 -5 31 -10 39 -7 11 -8 5 -4
-20z"></path>
<path d="M33610 12343 c-14 -3 -30 -9 -37 -14 -6 -6 -22 -7 -35 -4 -44 11 -52
-13 -45 -138 8 -143 40 -245 141 -445 41 -81 78 -159 81 -174 4 -15 19 -40 35
-55 27 -27 80 -105 129 -186 47 -78 52 -125 62 -592 9 -428 17 -547 40 -569 8
-8 22 1 50 32 33 38 48 46 106 59 37 9 80 22 95 29 15 8 52 14 83 14 30 0 55
5 55 10 0 6 10 10 23 10 30 0 145 -36 162 -50 12 -10 16 -9 21 3 3 8 16 18 29
21 13 3 30 9 39 12 13 5 16 -1 16 -25 0 -17 -4 -31 -9 -31 -5 0 -13 -9 -16
-20 -4 -11 -11 -18 -16 -15 -5 4 -9 1 -9 -4 0 -6 4 -11 9 -11 5 0 12 -8 16
-17 5 -13 -11 -34 -60 -80 -67 -62 -73 -77 -42 -97 12 -8 25 -6 51 8 27 14 46
17 84 12 45 -6 50 -4 62 19 15 27 50 34 50 10 0 -9 -12 -20 -26 -25 -21 -8
-24 -13 -14 -24 6 -8 21 -13 33 -10 83 18 106 24 135 35 29 12 37 12 64 -4 17
-10 34 -14 37 -9 9 14 63 28 89 24 15 -2 29 -15 37 -35 11 -26 25 -36 77 -56
35 -13 77 -34 95 -47 17 -13 45 -24 61 -24 19 0 37 -10 56 -30 15 -17 31 -28
36 -25 13 8 13 62 0 70 -16 10 -12 42 6 49 19 7 62 -14 93 -48 28 -30 37 -32
57 -11 22 22 41 18 61 -11 14 -21 14 -29 4 -46 -15 -23 0 -48 30 -48 22 0 57
-74 66 -139 3 -24 14 -52 25 -63 24 -24 23 -33 -9 -57 -16 -12 -34 -26 -40
-31 -20 -17 -15 -61 9 -87 21 -22 21 -25 6 -51 -8 -15 -19 -54 -23 -87 -4 -33
-14 -87 -22 -120 -8 -33 -18 -89 -22 -125 -6 -53 -16 -78 -49 -130 -23 -35
-42 -70 -42 -77 0 -8 -14 -40 -30 -72 -18 -34 -28 -65 -24 -75 3 -9 2 -22 -4
-29 -5 -6 -24 -39 -41 -72 -18 -33 -37 -67 -43 -76 -15 -22 -3 -49 21 -49 30
0 121 143 121 191 0 21 5 41 10 44 6 3 10 15 10 27 0 44 43 100 96 123 47 21
52 26 71 81 50 141 58 161 79 204 31 62 56 138 49 150 -3 5 -10 62 -16 127
-17 210 -24 246 -58 318 -56 122 -122 249 -138 267 -21 24 -13 53 16 53 19 0
27 -8 36 -34 6 -19 27 -48 47 -65 19 -17 38 -41 42 -53 8 -24 36 -32 36 -10 0
7 -7 22 -15 33 -8 10 -15 28 -15 39 -1 44 -22 97 -41 102 -10 3 -17 9 -14 13
3 4 -2 10 -10 14 -8 3 -15 12 -15 19 0 8 -15 18 -32 23 -23 7 -34 17 -36 32
-4 27 -37 51 -62 45 -20 -5 -33 9 -25 29 6 14 43 17 63 4 19 -12 14 1 -12 29
-16 18 -30 24 -38 19 -22 -14 -41 -14 -85 -2 -44 13 -57 28 -25 28 24 0 32 8
25 26 -9 23 -57 17 -68 -8 -7 -15 -17 -22 -30 -20 -45 8 -54 45 -14 57 23 8
24 23 4 61 -8 16 -15 41 -15 55 0 28 -16 39 -55 39 -18 0 -22 4 -18 19 6 22
-32 65 -48 56 -5 -4 -21 0 -34 9 -26 17 -24 41 4 63 14 10 14 12 -2 19 -15 5
-16 9 -5 15 9 6 6 9 -12 9 l-25 1 23 18 c12 11 22 24 22 31 0 21 53 60 82 60
21 0 32 7 40 25 6 14 15 25 20 25 4 0 8 11 8 24 0 19 6 25 27 28 16 2 27 10
29 21 4 28 9 31 87 47 68 14 73 17 83 48 5 18 13 29 17 26 4 -4 7 0 7 9 0 10
3 16 8 15 17 -5 80 35 85 53 5 17 9 19 25 10 14 -7 24 -7 38 3 17 13 17 14 0
32 -10 10 -25 32 -32 49 -11 25 -10 34 3 54 13 20 13 25 2 32 -18 11 -21 11
-39 -2 -11 -8 -12 -12 -2 -16 18 -7 14 -22 -5 -18 -10 2 -21 4 -25 4 -13 2 -9
49 5 54 6 2 -2 11 -19 20 -17 9 -36 23 -43 31 -12 14 -17 14 -48 1 -29 -12
-39 -13 -61 -2 -15 8 -46 12 -69 10 -34 -3 -43 0 -43 12 0 8 -9 24 -20 35 -11
11 -20 31 -20 45 0 15 -6 25 -14 25 -17 0 -27 25 -19 46 7 19 -13 34 -44 34
-24 0 -73 56 -73 83 0 10 -4 17 -10 17 -5 0 -12 11 -16 25 -3 14 -12 25 -20
25 -17 0 -53 35 -113 108 -24 29 -51 52 -62 52 -14 0 -19 7 -19 29 0 16 -6 31
-15 35 -8 3 -15 12 -15 20 0 21 -25 27 -47 11 -19 -15 -63 -20 -63 -7 0 4 -11
20 -25 36 -14 16 -25 35 -25 43 0 7 -10 13 -23 13 -13 0 -32 9 -42 20 -12 14
-31 20 -59 20 -30 0 -52 9 -80 30 -22 16 -55 33 -75 36 -36 7 -61 24 -61 43 0
6 -11 13 -25 17 -13 3 -29 12 -36 20 -15 19 -63 18 -79 -1 -7 -8 -25 -15 -40
-15 -21 0 -29 6 -34 24 -9 38 -69 70 -117 62 -22 -4 -48 -10 -57 -15 -72 -38
-321 -30 -407 12 -40 20 -65 25 -95 20z m1550 -1813 c0 -5 -4 -10 -10 -10 -5
0 -10 5 -10 10 0 6 5 10 10 10 6 0 10 -4 10 -10z m-300 -230 c0 -11 -2 -20 -4
-20 -2 0 -11 -3 -20 -6 -19 -7 -22 16 -4 34 18 18 28 15 28 -8z m3 -77 c10
-10 -13 -33 -34 -33 -28 0 -33 19 -7 29 29 12 33 13 41 4z m611 -49 c17 -17
13 -34 -8 -34 -17 0 -48 35 -39 43 11 12 31 8 47 -9z"></path>
<path d="M36040 12184 c0 -14 4 -23 10 -19 6 3 10 15 10 26 0 10 -4 19 -10 19
-5 0 -10 -12 -10 -26z"></path>
<path d="M16750 11234 c0 -8 5 -12 10 -9 6 3 10 10 10 16 0 5 -4 9 -10 9 -5 0
-10 -7 -10 -16z"></path>
<path d="M16712 11000 c0 -14 2 -19 5 -12 2 6 2 18 0 25 -3 6 -5 1 -5 -13z"></path>
<path d="M35467 10883 c-12 -11 -8 -23 8 -23 8 0 15 7 15 15 0 16 -12 20 -23
8z"></path>
<path d="M35370 10598 c0 -22 17 -41 29 -34 19 12 13 46 -9 46 -11 0 -20 -6
-20 -12z"></path>
<path d="M35492 9805 c0 -16 2 -22 5 -12 2 9 2 23 0 30 -3 6 -5 -1 -5 -18z"></path>
<path d="M35920 9811 c0 -6 5 -13 10 -16 6 -3 10 1 10 9 0 9 -4 16 -10 16 -5
0 -10 -4 -10 -9z"></path>
<path d="M35956 9734 c-11 -27 -6 -62 8 -67 12 -5 26 29 26 63 0 16 -28 18
-34 4z"></path>
<path d="M18640 9048 c-16 -6 -20 -12 -12 -15 18 -7 62 5 62 17 0 12 -18 12
-50 -2z"></path>
<path d="M18453 8990 c-35 -21 -43 -40 -18 -40 20 0 105 42 105 52 0 15 -55 8
-87 -12z"></path>
<path d="M34070 8630 c-14 -4 -36 -11 -50 -14 -16 -3 -29 -16 -37 -35 -10 -28
-13 -29 -41 -19 -24 9 -40 9 -72 -2 -33 -11 -46 -11 -61 -2 -10 7 -38 19 -61
27 -64 22 -71 -2 -42 -150 9 -44 24 -127 34 -185 59 -349 74 -427 105 -535 19
-66 42 -158 51 -205 30 -154 34 -141 50 180 4 76 12 136 20 152 8 15 14 38 14
53 0 24 18 34 34 18 3 -4 27 -8 51 -9 25 -2 67 -14 93 -28 112 -60 205 -90
352 -116 169 -30 399 -27 494 6 21 8 51 14 66 14 16 0 35 3 44 6 32 12 15 24
-33 24 -53 0 -101 14 -113 33 -3 6 2 23 13 39 18 24 19 32 8 67 -11 36 -39 65
-39 40 0 -5 -9 -1 -21 9 -14 14 -18 26 -14 45 5 18 -1 37 -20 68 -22 34 -25
46 -16 60 16 27 4 46 -71 117 -37 35 -68 70 -68 78 0 7 -20 29 -44 49 -24 20
-47 47 -50 60 -4 14 -19 32 -34 42 -15 9 -39 30 -55 46 -21 22 -32 27 -50 21
-61 -21 -253 3 -325 40 -33 17 -72 19 -112 6z"></path>
<path d="M34720 8508 c0 -40 110 -172 128 -154 5 5 -102 151 -117 161 -6 3
-11 0 -11 -7z"></path>
<path d="M19710 8090 c-13 -8 -13 -10 2 -10 9 0 20 5 23 10 8 13 -5 13 -25 0z"></path>
<path d="M19593 8060 c-34 -14 -28 -30 10 -30 31 0 57 14 57 32 0 10 -39 9
-67 -2z"></path>
<path d="M19275 7903 c-57 -7 -75 -13 -95 -35 -40 -43 -18 -50 63 -17 29 11
58 24 66 28 20 10 26 31 9 30 -7 -1 -26 -4 -43 -6z"></path>
<path d="M19044 7795 c-18 -14 -18 -14 8 -15 32 0 58 9 58 21 0 14 -44 10 -66
-6z"></path>
<path d="M18838 7702 c-27 -14 -48 -29 -48 -33 0 -4 12 -10 27 -14 20 -5 31
-1 42 13 9 11 25 22 36 24 11 2 21 11 23 21 5 24 -23 20 -80 -11z"></path>
<path d="M19975 7605 c-14 -25 -23 -50 -20 -55 9 -15 42 -12 49 5 3 9 18 15
35 15 38 0 48 33 18 60 -32 31 -53 24 -82 -25z"></path>
<path d="M19691 7576 c-14 -17 -7 -36 15 -36 15 0 18 18 5 38 -6 10 -10 10
-20 -2z"></path>
<path d="M19736 7487 c-14 -30 -18 -32 -65 -31 -28 0 -51 -3 -51 -8 0 -4 -9
-17 -20 -28 -12 -12 -18 -25 -14 -31 3 -6 3 -21 0 -35 -5 -19 -12 -25 -30 -22
-17 2 -37 -11 -71 -44 -40 -40 -52 -46 -75 -41 -22 4 -35 -1 -55 -21 -20 -20
-35 -25 -64 -24 -22 1 -48 -6 -62 -15 -15 -11 -43 -17 -76 -17 -39 0 -53 -4
-53 -14 0 -8 -12 -24 -27 -36 -22 -17 -38 -21 -75 -18 -33 2 -49 -1 -53 -10
-3 -7 -9 -10 -15 -7 -5 3 -10 2 -10 -3 0 -5 -16 -8 -35 -8 -31 1 -36 4 -41 34
-6 32 -40 59 -55 43 -4 -3 -3 -33 2 -66 11 -79 6 -95 -34 -95 -18 0 -59 -7
-92 -15 -33 -9 -71 -18 -85 -21 -14 -3 -32 -12 -41 -20 -9 -8 -36 -14 -62 -14
-26 0 -47 -4 -47 -9 0 -5 -15 -14 -32 -20 -77 -27 -107 -46 -108 -67 0 -24
-37 -44 -80 -44 -17 0 -30 -3 -30 -6 0 -3 22 -27 48 -52 43 -42 72 -80 72 -96
0 -14 -42 -4 -86 19 -25 14 -51 22 -56 19 -5 -3 -6 -21 -2 -40 4 -24 1 -42
-11 -60 l-17 -26 -12 23 c-17 36 -53 35 -112 -3 -49 -32 -65 -52 -44 -54 6 -1
17 -2 25 -3 32 -2 15 -46 -34 -88 -53 -46 -71 -52 -91 -28 -20 24 -36 18 -59
-20 -14 -23 -28 -35 -43 -35 -13 0 -32 -7 -42 -15 -11 -8 -26 -15 -34 -15 -8
0 -27 -9 -42 -20 -16 -11 -32 -19 -37 -18 -4 2 -9 -1 -11 -7 -2 -5 16 -16 39
-22 24 -7 49 -19 57 -26 11 -12 8 -16 -17 -27 -33 -13 -46 -39 -36 -70 9 -28
-19 -36 -50 -16 -31 20 -64 21 -72 0 -7 -19 13 -34 45 -34 28 0 28 -14 0 -40
-24 -22 -78 -27 -78 -7 0 9 -11 12 -33 9 -25 -3 -40 3 -67 27 -35 30 -60 40
-60 22 0 -23 15 -43 36 -51 13 -5 30 -25 38 -45 8 -19 20 -35 25 -35 25 0 8
-29 -21 -35 -17 -4 -44 -15 -59 -24 -23 -14 -39 -16 -81 -9 -29 4 -77 10 -105
12 -53 5 -53 5 -53 -24 0 -15 -2 -35 -6 -43 -8 -22 -54 -8 -72 23 -15 23 -21
25 -46 19 -15 -4 -35 -17 -43 -28 -8 -12 -22 -21 -33 -21 -23 0 -35 79 -14 96
18 14 18 40 0 47 -14 6 -36 -10 -36 -26 0 -6 -8 -16 -17 -23 -15 -10 -21 -10
-35 3 -21 19 -74 4 -110 -31 -27 -26 -85 -49 -102 -39 -6 4 -17 15 -24 25 -21
29 -53 19 -67 -21 -6 -19 -16 -36 -21 -37 -5 -2 -28 -8 -51 -14 -30 -7 -43
-16 -43 -28 1 -24 26 -67 33 -56 11 19 132 15 209 -5 133 -36 157 -56 96 -79
-25 -9 -37 -9 -64 4 -33 16 -35 15 -65 -10 -38 -32 -45 -32 -53 -1 -8 32 -18
31 -52 0 -20 -19 -37 -25 -58 -23 -29 3 -31 6 -32 43 -1 22 -2 45 -3 52 0 7
-17 15 -36 19 -42 8 -48 15 -36 45 5 15 3 35 -5 56 -16 37 -10 60 17 68 22 7
26 25 4 25 -8 0 -46 21 -85 46 -71 46 -95 50 -72 14 10 -16 7 -22 -18 -40 -25
-18 -30 -27 -28 -62 1 -33 -4 -46 -23 -62 -32 -28 -42 -55 -28 -72 14 -17 5
-44 -14 -44 -22 0 -40 -55 -34 -98 4 -24 1 -47 -8 -65 -8 -15 -14 -47 -13 -71
0 -24 -3 -50 -8 -57 -5 -8 -10 -54 -11 -104 -2 -146 -12 -338 -19 -368 -3 -16
0 -41 6 -57 11 -26 8 -38 -19 -104 -19 -47 -31 -92 -31 -121 0 -25 -7 -69 -16
-96 -16 -49 -16 -51 5 -79 22 -31 27 -55 12 -64 -5 -3 -12 -27 -16 -52 -3 -26
-9 -52 -12 -59 -3 -8 8 -16 29 -20 35 -7 98 -41 110 -59 16 -23 -22 -83 -43
-70 -20 12 -7 -55 16 -86 14 -19 25 -43 25 -55 0 -25 44 -111 75 -145 30 -34
45 -64 45 -93 0 -14 7 -30 16 -37 13 -11 74 -123 74 -136 0 -14 -30 1 -62 31
-29 26 -38 42 -38 67 0 28 -8 41 -45 71 -40 34 -45 36 -45 17 0 -11 11 -33 25
-48 14 -15 25 -36 25 -48 0 -12 11 -29 25 -38 14 -9 25 -21 25 -27 0 -5 16
-43 35 -83 41 -88 43 -101 13 -92 -46 14 -58 15 -63 5 -9 -14 -41 -11 -55 6
-15 19 -40 20 -40 2 0 -8 9 -22 21 -33 12 -10 28 -32 36 -49 9 -16 26 -42 39
-57 12 -16 27 -53 33 -85 6 -32 18 -71 26 -86 8 -16 15 -37 15 -47 0 -12 16
-26 45 -40 86 -42 126 -125 42 -91 -17 8 -47 15 -65 16 -18 2 -51 15 -72 30
-23 16 -46 25 -55 21 -14 -5 -11 -16 19 -73 20 -37 36 -73 36 -79 0 -7 15 -31
34 -53 19 -23 38 -50 41 -61 3 -10 15 -22 26 -25 21 -7 59 -60 59 -82 0 -27
-31 -11 -62 32 -18 24 -44 48 -59 53 -14 5 -38 24 -54 41 -58 61 -76 30 -20
-34 19 -22 44 -68 56 -103 12 -35 27 -66 35 -69 16 -6 19 -33 4 -33 -5 0 -13
6 -17 14 -10 16 -46 36 -67 36 -28 0 -19 -54 14 -91 55 -62 22 -101 -47 -55
-20 14 -39 24 -41 22 -7 -8 23 -46 37 -46 10 0 12 -8 7 -31 -3 -17 -6 -44 -6
-60 0 -27 -3 -29 -39 -29 l-40 0 13 -42 c11 -40 15 -43 51 -48 55 -7 179 -90
193 -129 7 -20 7 -32 -1 -40 -19 -19 -43 -12 -96 30 -28 22 -51 38 -51 34 0
-10 42 -64 88 -114 23 -25 45 -57 49 -71 7 -29 31 -60 46 -60 6 0 21 -10 34
-22 26 -24 82 -60 130 -83 18 -8 38 -25 44 -37 22 -43 54 -69 124 -103 58 -27
74 -41 94 -76 33 -59 47 -68 107 -69 37 0 54 -4 58 -15 3 -9 21 -22 39 -30 19
-8 48 -30 65 -49 27 -31 35 -34 66 -29 31 5 43 0 88 -34 29 -22 75 -48 102
-59 49 -19 83 -54 71 -74 -3 -5 -21 -10 -40 -10 -26 0 -39 8 -62 36 -25 32
-32 35 -50 26 -18 -10 -19 -15 -9 -54 15 -59 23 -68 55 -68 22 0 32 -8 47 -35
15 -28 24 -35 50 -35 23 0 34 -6 42 -25 6 -14 18 -25 26 -25 11 0 15 -11 14
-41 0 -45 14 -66 52 -71 24 -3 25 -1 22 45 -3 42 -1 49 17 54 12 3 21 11 21
18 0 17 -24 25 -92 30 -59 6 -70 12 -62 41 10 39 38 46 97 24 30 -11 62 -29
71 -39 10 -11 28 -22 41 -25 30 -8 44 -45 21 -58 -11 -6 -16 -23 -16 -52 0
-23 2 -45 6 -48 9 -10 83 36 88 54 12 49 143 -19 180 -94 6 -12 25 -26 43 -32
18 -6 48 -28 66 -48 19 -21 43 -38 54 -38 10 0 47 -21 82 -47 35 -27 76 -55
92 -64 15 -9 42 -30 58 -48 16 -17 38 -31 49 -31 11 0 39 -18 62 -39 46 -42
80 -57 80 -37 0 13 -37 42 -83 66 -18 9 -30 25 -34 42 -6 29 -29 48 -59 48 -9
0 -26 9 -38 20 -42 41 -117 100 -128 100 -35 0 -50 82 -23 124 14 21 14 25 -5
49 -23 29 -26 47 -6 47 24 0 63 -38 69 -68 4 -18 18 -35 40 -47 85 -50 125
-80 146 -111 21 -30 164 -114 196 -114 7 0 20 -11 28 -24 9 -13 45 -38 79 -54
35 -16 77 -45 94 -63 17 -19 40 -41 50 -50 11 -9 30 -30 44 -48 14 -17 30 -31
36 -31 7 0 37 -20 67 -45 38 -30 58 -55 62 -76 5 -20 18 -38 41 -51 19 -11 35
-25 35 -31 6 -58 -36 -79 -81 -41 -16 14 -49 11 -94 -6 -22 -8 -31 -4 -74 38
-27 26 -79 62 -115 80 -37 19 -69 41 -72 52 -8 27 -56 63 -68 51 -11 -11 18
-70 36 -72 6 -1 19 0 27 1 8 1 12 -1 8 -6 -4 -4 2 -24 14 -45 28 -50 19 -69
-30 -69 -46 0 -89 19 -122 55 -17 18 -34 25 -62 25 -21 0 -38 -2 -38 -4 0 -21
23 -56 41 -61 27 -9 69 -53 69 -71 0 -23 -56 -16 -96 11 -46 31 -65 29 -75 -8
-9 -32 -32 -29 242 -27 157 1 189 -1 202 -14 19 -20 84 -21 102 -2 19 19 306
17 313 -1 5 -17 5242 -19 5242 -3 0 6 11 10 25 10 14 0 25 -4 25 -10 0 -6 38
-10 95 -10 57 0 95 4 95 10 0 6 9 10 20 10 11 0 20 -4 20 -10 0 -5 14 -10 30
-10 17 0 30 5 30 10 0 6 16 10 35 10 19 0 35 -4 35 -10 0 -13 237 -13 242 0 5
16 600 18 605 3 5 -15 53 -18 53 -3 0 6 14 10 30 10 17 0 30 -4 30 -10 0 -15
117 -13 123 3 4 9 6 9 6 0 1 -16 591 -19 591 -3 0 6 7 10 15 10 8 0 15 -4 15
-10 0 -6 35 -10 85 -10 50 0 85 4 85 10 0 6 61 10 164 10 150 0 165 2 190 21
14 11 26 27 26 35 0 8 11 19 25 24 14 5 25 14 25 19 0 5 6 16 14 24 17 16 11
56 -7 53 -7 -1 -26 -16 -44 -34 -34 -34 -67 -41 -80 -17 -5 8 -19 16 -33 17
-13 2 -38 15 -54 31 -29 27 -66 36 -66 16 0 -17 -87 -6 -133 16 -31 14 -41 15
-47 6 -5 -9 -9 -10 -14 -2 -11 18 -44 13 -51 -7 -9 -31 -97 -58 -107 -33 -6
16 -46 22 -59 9 -16 -15 -31 -18 -124 -21 -61 -2 -73 1 -92 20 -28 28 -35 28
-52 4 -12 -16 -16 -17 -28 -6 -14 14 -43 10 -43 -6 0 -5 -17 -2 -37 5 -32 12
-84 15 -140 8 -7 -1 -13 -12 -13 -23 0 -17 -5 -20 -25 -17 -14 3 -25 1 -25 -4
0 -5 -8 -7 -17 -5 -67 19 -90 17 -117 -8 -33 -30 -55 -32 -89 -5 -33 26 -37
25 -37 -9 0 -17 -5 -33 -11 -36 -16 -11 -59 4 -59 20 0 8 -7 15 -15 15 -8 0
-15 -7 -15 -15 0 -8 -9 -15 -20 -15 -11 0 -20 5 -20 10 0 6 -8 10 -19 10 -13
0 -20 9 -25 30 -7 38 -28 38 -62 1 -23 -26 -28 -28 -54 -18 -23 9 -33 8 -47
-3 -35 -29 -150 -12 -191 27 -18 17 -29 16 -40 -2 -7 -13 -14 -14 -36 -5 -38
14 -44 13 -51 -11 -6 -18 -12 -20 -38 -14 -18 3 -46 7 -62 8 -17 2 -46 13 -64
26 -33 24 -42 22 -54 -14 -2 -5 -16 1 -32 13 -31 25 -46 27 -63 10 -7 -7 -8
-17 -2 -29 7 -11 7 -20 0 -24 -9 -6 -14 7 -7 20 1 3 -11 14 -28 25 -16 11 -38
25 -47 32 -15 10 -20 9 -33 -7 -15 -20 -15 -20 -30 -1 -14 18 -68 26 -195 27
-91 0 -97 -1 -111 -27 l-13 -26 -26 30 c-14 17 -33 42 -43 56 -21 30 -37 26
-37 -9 0 -38 -18 -39 -34 0 -15 34 -38 46 -52 24 -3 -6 -17 -9 -30 -6 -17 3
-28 -3 -39 -19 -19 -30 -41 -31 -56 -3 -8 16 -17 20 -39 15 -18 -3 -33 0 -40
9 -7 8 -19 15 -27 15 -8 0 -27 6 -41 14 -15 8 -35 17 -45 20 -9 3 -22 17 -27
31 -14 36 -20 31 -13 -11 6 -33 4 -36 -18 -32 -13 2 -28 13 -34 26 -8 19 -15
22 -38 18 -16 -3 -38 -1 -48 5 -15 7 -24 7 -34 -1 -17 -14 -35 -5 -35 19 0 10
-11 23 -25 29 -27 13 -32 31 -12 51 10 10 7 10 -13 3 -22 -9 -25 -15 -25 -63
l0 -54 -27 27 c-16 15 -28 31 -28 36 0 5 -9 17 -20 27 -11 10 -20 24 -20 31 0
15 -27 44 -41 44 -15 0 -11 -67 5 -73 8 -3 17 -19 21 -36 3 -16 13 -35 21 -42
15 -12 19 -39 6 -39 -13 0 -59 53 -66 75 -6 21 -80 103 -127 141 l-27 22 -13
-24 c-7 -14 -17 -23 -23 -21 -15 4 -55 87 -56 115 0 23 14 30 25 12 10 -16 25
-1 25 24 0 16 -7 26 -22 29 -26 7 -38 1 -38 -19 0 -20 -14 -17 -36 7 -15 16
-16 24 -6 39 7 11 12 30 12 42 0 13 7 32 15 42 13 17 12 23 -5 51 -11 18 -19
43 -18 56 3 21 -1 24 -32 24 -31 0 -35 3 -40 30 -4 17 -11 29 -18 28 -6 -2
-18 11 -27 27 -13 24 -13 33 -3 50 10 16 19 19 45 14 31 -6 33 -5 33 24 0 47
-10 62 -40 62 -39 0 -90 -20 -90 -35 0 -7 4 -15 9 -17 5 -1 11 -12 13 -23 2
-16 -3 -21 -25 -23 -28 -3 -28 -3 -25 49 3 47 6 54 28 59 22 6 25 11 22 48 -2
31 2 44 13 48 10 4 13 14 9 29 -3 13 2 37 10 54 13 24 23 31 46 31 20 0 31 6
35 20 3 11 11 20 16 20 5 0 9 7 9 16 0 13 -9 15 -52 11 -29 -3 -61 -8 -70 -12
-23 -9 -33 16 -18 44 7 14 7 21 0 21 -5 0 -10 9 -10 20 0 11 -4 20 -9 20 -18
0 -22 55 -6 88 9 18 14 41 10 52 -9 27 11 50 41 50 15 0 24 6 24 15 0 14 32
49 95 103 34 28 65 30 58 2 -3 -11 -1 -20 4 -20 6 0 13 20 16 44 8 57 26 94
48 101 10 3 23 21 29 40 6 19 15 35 20 35 4 0 16 17 25 38 10 20 26 47 37 58
26 29 22 80 -7 76 -11 -2 -24 -11 -29 -20 -5 -9 -34 -43 -65 -76 -31 -34 -66
-73 -77 -88 -24 -30 -104 -78 -131 -78 -10 0 -30 -8 -43 -17 -14 -10 -35 -16
-47 -15 -17 3 -26 -5 -37 -32 -17 -40 -32 -46 -41 -16 -10 31 -25 24 -43 -21
-15 -40 -16 -40 -56 -34 -23 4 -49 9 -59 12 -23 6 -38 44 -25 60 12 15 17 72
7 79 -15 9 -58 -19 -61 -40 -3 -18 -9 -21 -48 -18 -57 3 -95 40 -86 83 7 35
-3 42 -37 24 -30 -16 -40 -3 -31 43 4 21 0 34 -19 52 -13 14 -27 35 -31 47 -7
23 -62 48 -71 32 -7 -10 -78 -13 -88 -2 -9 9 12 33 30 33 8 0 28 12 44 27 29
28 29 28 7 33 -13 3 -28 17 -35 30 -6 13 -22 29 -35 36 -21 11 -23 18 -21 96
0 45 2 86 2 91 1 4 14 7 30 7 34 0 51 28 27 46 -11 7 -16 27 -16 57 0 47 14
67 33 48 14 -14 44 -14 52 -1 3 5 1 17 -6 28 -9 15 -6 27 20 69 17 27 31 62
31 77 0 33 32 66 66 66 30 0 64 16 64 31 0 12 -36 6 -80 -15 -87 -41 -116 -61
-149 -98 -32 -36 -39 -40 -73 -35 -21 3 -41 1 -44 -4 -3 -5 -10 -7 -15 -4 -5
4 -9 1 -9 -6 0 -19 -41 -49 -67 -49 -13 0 -33 -11 -45 -25 -24 -28 -38 -32
-38 -12 0 25 -21 37 -37 21 -17 -16 -33 -18 -33 -4 0 6 -6 10 -12 10 -7 0 -30
14 -51 32 -27 22 -48 32 -75 32 -29 1 -37 5 -35 19 0 11 -9 23 -23 29 -13 6
-26 19 -29 29 -3 9 -26 26 -50 36 -45 18 -53 27 -35 38 22 13 8 34 -32 47 -51
16 -57 31 -24 61 14 14 26 29 26 35 0 14 -28 23 -55 16 -17 -4 -25 -1 -29 14
-4 11 -6 24 -5 28 4 15 -13 44 -25 44 -6 0 -23 10 -38 23 -14 12 -36 29 -48
37 -13 10 -19 22 -16 34 3 11 -4 30 -15 44 -14 19 -16 28 -8 38 6 8 17 14 25
14 7 0 18 9 24 21 15 27 -5 52 -36 45 -33 -9 -84 13 -84 35 0 10 -4 19 -8 19
-12 0 -32 47 -32 75 0 13 -11 32 -24 42 -19 15 -23 26 -19 49 3 16 10 34 15
41 7 8 -2 15 -31 24 -29 8 -48 23 -66 50 -14 21 -25 41 -25 43 0 10 57 -6 81
-23 16 -12 35 -17 52 -14 34 7 34 16 2 37 -30 20 -31 26 -5 54 11 11 17 28 14
36 -4 11 0 16 10 16 9 0 16 -4 16 -9 0 -15 41 -24 53 -12 8 8 7 17 -2 35 -9
17 -10 29 -3 43 8 15 7 22 -9 31 -10 7 -28 12 -39 12 -11 0 -29 9 -41 21 -13
13 -27 18 -40 14 -11 -4 -19 -2 -19 6 0 8 -3 9 -13 0 -8 -6 -17 -8 -21 -4 -4
4 -28 9 -54 10 -26 2 -51 8 -56 13 -12 12 1 43 17 37 6 -3 19 -8 28 -11 10 -5
19 1 26 16 6 13 16 35 23 50 15 32 3 55 -33 60 -17 2 -23 11 -25 38 -3 34 -2
36 30 37 18 0 39 1 46 2 6 1 12 13 12 27 0 14 9 33 21 43 16 13 20 23 14 40
-9 29 -49 25 -53 -6 -3 -22 -37 -41 -50 -28 -3 3 -5 27 -4 53 1 39 7 51 32 72
23 20 30 34 32 70 3 42 2 45 -27 50 -36 6 -43 31 -20 66 28 43 -3 74 -39 39
-13 -14 -16 -13 -26 5 -8 16 -7 22 10 32 40 25 16 57 -31 40 -13 -5 -30 -7
-36 -5 -15 5 -17 43 -3 43 18 0 10 45 -15 82 -29 43 -34 108 -9 132 8 9 28 16
44 16 17 0 40 10 54 24 25 22 25 24 8 40 -10 9 -30 16 -45 16 -17 0 -31 8 -38
22 -6 12 -24 32 -40 46 -22 18 -28 29 -23 47 5 20 1 25 -19 30 -33 9 -61 40
-51 56 4 7 6 36 5 66 -2 45 2 57 24 79 23 23 25 30 16 50 -6 13 -15 24 -21 24
-5 0 -10 9 -10 20 0 11 5 20 10 20 6 0 10 6 10 14 0 15 54 38 65 28 4 -4 2 3
-6 15 -19 32 -2 77 31 81 33 4 51 28 41 56 -12 31 -4 44 24 38 28 -5 31 4 11
31 -8 11 -20 15 -31 11 -18 -7 -35 10 -35 38 0 14 42 39 46 27 1 -2 11 5 23
15 28 26 26 54 -5 78 -20 16 -24 26 -19 47 4 20 0 32 -15 46 -24 22 -25 38 -4
56 24 19 40 19 62 -1 19 -18 20 -18 26 22 4 25 2 45 -5 55 -9 11 -9 17 1 26
10 9 13 9 17 0 3 -7 9 -13 15 -13 7 0 6 5 -1 14 -17 20 -4 59 30 97 34 38 36
52 10 76 -10 10 -21 30 -25 46 -5 23 -10 26 -31 21 -14 -3 -39 -1 -56 5 -24 8
-41 8 -65 -1 -26 -9 -38 -8 -69 6 -20 10 -48 20 -63 22 -14 3 -31 9 -37 14 -6
5 -31 10 -55 12 l-45 3 0 60 c0 33 -4 66 -8 73 -10 15 7 16 34 1 25 -13 49 4
49 36 0 12 9 32 20 45 11 13 20 29 20 37 0 7 7 13 15 13 34 0 14 36 -30 55
-40 18 -50 31 -46 58 0 4 -3 7 -7 7 -5 0 -14 15 -21 33 -13 32 -16 34 -62 33
-33 -1 -50 3 -54 13 -3 8 -2 17 1 20 4 3 9 0 11 -6 3 -7 9 -13 14 -13 19 0 58
55 65 90 8 43 58 89 97 90 15 0 27 1 27 3 0 9 -53 134 -61 143 -5 7 -22 14
-38 16 -26 4 -28 2 -27 -31 1 -32 -2 -36 -26 -39 -16 -2 -30 -11 -33 -23 -8
-23 -28 -25 -49 -3 -20 20 -20 39 0 74 15 25 21 27 55 23 26 -4 39 -2 39 6 0
6 -9 11 -21 11 -11 0 -29 5 -40 10 -25 14 -68 -8 -108 -57 -21 -25 -40 -38
-58 -39 -16 -1 -34 -2 -41 -3 -9 -1 -11 -14 -7 -48 3 -27 1 -54 -4 -62 -16
-24 -57 1 -71 43 -8 26 -17 36 -33 36 -12 1 -33 7 -46 14 -23 13 -27 12 -44
-10 -10 -13 -16 -28 -12 -33 3 -5 1 -12 -5 -16 -5 -3 -10 3 -10 13 0 22 -33
35 -48 20 -18 -18 -50 2 -58 35 -4 18 -16 40 -27 50 -18 15 -19 22 -11 45 12
32 0 49 -46 62 -26 7 -30 5 -44 -23z m20 -42 c4 -8 16 -15 29 -15 18 0 22 -4
18 -20 -5 -20 -15 -24 -43 -20 -19 3 -30 19 -30 48 0 25 18 30 26 7z m-43 -89
c-1 -16 -4 -30 -7 -33 -9 -10 -46 19 -46 36 0 24 10 32 35 29 15 -2 20 -10 18
-32z m145 -64 c18 -24 -1 -38 -33 -24 -33 15 -36 57 -2 47 12 -4 28 -14 35
-23z m492 -9 c0 -16 -2 -16 -34 -3 -14 5 -26 16 -26 24 0 12 5 12 30 3 17 -6
30 -17 30 -24z m128 -44 c4 -22 -47 -41 -72 -27 -17 9 -17 11 0 29 21 24 67
22 72 -2z m-314 -75 c10 -25 7 -34 -9 -34 -9 0 -15 9 -15 25 0 28 15 34 24 9z
m100 -40 c16 -16 22 -64 9 -64 -18 1 -53 49 -47 64 8 20 18 20 38 0z m-950
-34 c-6 -6 -15 -6 -24 0 -13 9 -13 11 0 20 18 11 39 -5 24 -20z m1141 -65 c0
-23 -4 -30 -20 -30 -15 0 -21 8 -23 33 -3 30 -1 33 20 30 18 -2 23 -9 23 -33z
m-137 -35 c11 -17 10 -20 -7 -20 -22 0 -35 15 -26 30 9 15 19 12 33 -10z
m-1372 -27 c-10 -10 -19 5 -10 18 6 11 8 11 12 0 2 -7 1 -15 -2 -18z m-88 -9
c3 -23 -58 -70 -103 -78 -15 -3 -34 -11 -42 -18 -8 -7 -29 -14 -47 -15 -91 -9
-91 -9 -91 11 0 17 12 22 80 34 98 17 123 28 141 65 18 34 57 35 62 1z m1512
-19 c0 -8 -4 -15 -10 -15 -5 0 -10 7 -10 15 0 8 5 15 10 15 6 0 10 -7 10 -15z
m-1882 -117 c13 -13 -1 -38 -21 -38 -6 0 -28 -12 -48 -26 -31 -21 -43 -24 -65
-17 -71 24 -48 73 39 84 81 10 82 10 95 -3z m-211 -295 c2 -6 -3 -13 -12 -16
-10 -5 -15 0 -15 14 0 21 21 22 27 2z m176 -59 c20 -4 37 -12 37 -19 0 -20
-151 -75 -173 -64 -16 9 -14 14 25 50 45 41 50 43 111 33z m-194 -68 c9 -11 4
-20 -22 -43 -29 -26 -45 -31 -110 -36 -81 -7 -107 -3 -107 18 0 30 38 47 103
46 46 0 68 4 77 14 16 19 44 19 59 1z m2558 -2 c-3 -3 -12 -4 -19 -1 -8 3 -5
6 6 6 11 1 17 -2 13 -5z m-2818 -53 c19 -12 6 -41 -18 -41 -26 0 -36 17 -21
35 14 17 20 18 39 6z m-79 -52 c-17 -58 -32 -63 -76 -22 l-29 27 39 17 c53 23
77 16 66 -22z m-140 -34 c0 -8 -4 -15 -8 -15 -5 0 -9 7 -9 15 0 8 4 15 9 15 4
0 8 -7 8 -15z m2866 -126 c18 -11 37 -33 44 -50 8 -18 19 -29 29 -27 24 4 41
-11 41 -36 0 -33 -18 -43 -65 -36 -29 4 -35 7 -22 12 37 16 17 30 -40 28 -86
-3 -91 -2 -63 17 14 9 28 22 32 27 14 20 8 53 -12 71 -11 10 -20 25 -20 33 0
12 4 12 23 -2 12 -9 36 -26 53 -37z m-2926 -18 c0 -14 -18 -23 -31 -15 -8 4
-7 9 2 15 18 11 29 11 29 0z m860 -234 c0 -21 -60 -51 -73 -38 -14 14 6 31 35
31 9 0 20 5 23 10 9 14 15 13 15 -3z m-1044 -22 c8 -20 -11 -42 -41 -47 -28
-6 -40 14 -25 43 13 23 58 26 66 4z m-1266 -79 c0 -2 3 -11 6 -20 5 -12 0 -16
-19 -16 -28 0 -42 14 -32 30 6 10 45 15 45 6z m4377 -68 c-3 -8 -6 -5 -6 6 -1
11 2 17 5 13 3 -3 4 -12 1 -19z m-3340 -60 c28 -26 30 -55 4 -63 -11 -3 -36
-19 -57 -36 -29 -23 -46 -29 -73 -27 -33 3 -36 6 -33 31 3 26 2 27 -42 27 -35
0 -49 -5 -58 -20 -16 -24 -34 -26 -42 -3 -12 31 43 73 108 82 31 4 62 13 68
19 21 21 99 15 125 -10z m428 -12 c0 -26 -19 -31 -39 -11 -24 24 -19 37 12 33
19 -2 27 -9 27 -22z m-879 -13 c-10 -10 -19 5 -10 18 6 11 8 11 12 0 2 -7 1
-15 -2 -18z m74 -78 c16 -20 1 -39 -26 -33 -27 5 -32 48 -6 48 11 0 25 -7 32
-15z m3678 -277 c-7 -19 -38 -22 -38 -4 0 10 9 16 21 16 12 0 19 -5 17 -12z
m102 -98 c0 -23 -4 -30 -20 -30 -26 0 -28 46 -2 53 9 3 18 5 20 6 1 0 2 -12 2
-29z m-2 -268 c5 -15 -34 -30 -65 -24 -30 6 -31 40 0 51 23 9 57 -5 65 -27z
m22 -562 c0 -13 -7 -20 -20 -20 -13 0 -20 7 -20 20 0 13 7 20 20 20 13 0 20
-7 20 -20z m67 -46 c8 -21 -13 -64 -32 -64 -22 0 -39 48 -24 66 15 19 48 18
56 -2z m-30 -96 c-3 -8 -6 -5 -6 6 -1 11 2 17 5 13 3 -3 4 -12 1 -19z m-4607
-223 c15 -18 6 -45 -15 -45 -10 0 -15 10 -15 30 0 33 11 38 30 15z m4800 -66
c0 -11 -4 -18 -10 -14 -5 3 -7 12 -3 20 7 21 13 19 13 -6z m-4668 -996 c23
-21 25 -58 2 -49 -9 3 -20 6 -24 6 -5 0 -14 10 -21 21 -9 17 -8 23 2 30 19 12
20 11 41 -8z m136 -35 c24 -24 14 -41 -20 -34 -40 8 -44 12 -28 31 15 18 32
19 48 3z m-90 -516 c6 -9 12 -24 12 -34 0 -16 -3 -17 -32 -5 -40 16 -59 44
-39 56 17 11 42 4 59 -17z m-98 -71 c5 -11 10 -24 10 -30 0 -17 -27 -13 -34 5
-16 41 4 62 24 25z m5760 -11 c13 -9 13 -11 0 -20 -31 -20 -69 -8 -49 17 13
15 28 16 49 3z m-5630 -255 c6 -8 9 -19 5 -25 -4 -6 -3 -24 0 -41 5 -23 14
-31 35 -36 16 -3 36 -13 45 -23 14 -15 14 -18 0 -30 -12 -10 -21 -6 -51 24
-20 20 -46 39 -59 42 -12 3 -28 16 -35 29 -10 19 -9 26 11 49 26 30 32 31 49
11z m80 -50 c0 -9 -6 -12 -15 -9 -8 4 -15 10 -15 15 0 5 7 9 15 9 8 0 15 -7
15 -15z m5788 -30 c16 -18 29 -24 46 -21 19 3 27 -2 37 -25 8 -22 9 -33 1 -41
-15 -15 -43 -2 -49 21 -6 23 -26 33 -73 35 -25 1 -36 6 -38 20 -8 40 44 48 76
11z m-5678 -34 c15 -29 13 -32 -15 -19 -14 6 -25 17 -25 25 0 20 28 16 40 -6z
m5900 -91 c0 -4 -6 -13 -14 -19 -17 -14 -31 2 -22 24 5 15 36 10 36 -5z
m-5955 0 c3 -5 -1 -10 -9 -10 -9 0 -16 5 -16 10 0 6 4 10 9 10 6 0 13 -4 16
-10z m185 6 c0 -2 3 -11 6 -19 4 -12 0 -14 -15 -10 -24 6 -29 33 -6 33 8 0 15
-2 15 -4z m-126 -12 c27 -10 20 -44 -9 -44 -20 0 -25 5 -25 25 0 26 7 29 34
19z m202 -55 c3 -5 -5 -9 -17 -9 -13 0 -35 -15 -54 -37 l-31 -37 -23 23 -23
23 46 28 c45 26 89 30 102 9z m102 -31 c3 -13 -3 -18 -22 -18 -27 0 -41 14
-31 31 10 16 49 6 53 -13z m15 -70 c7 -23 -4 -38 -29 -38 -16 0 -24 -6 -24
-17 0 -15 -2 -16 -10 -3 -7 11 -10 12 -10 2 0 -20 -44 -10 -48 10 -2 12 5 19
22 24 14 3 30 12 37 20 14 17 56 18 62 2z m5767 -178 c0 -5 -4 -10 -10 -10 -5
0 -10 5 -10 10 0 6 5 10 10 10 6 0 10 -4 10 -10z m95 -100 c10 -16 -16 -43
-28 -31 -11 11 -2 41 12 41 5 0 13 -5 16 -10z m-54 -111 c16 -17 29 -37 29
-45 0 -23 -40 -16 -49 9 -5 13 -16 29 -25 36 -16 14 -13 31 6 31 5 0 23 -14
39 -31z m-44 -241 c-3 -8 -6 -5 -6 6 -1 11 2 17 5 13 3 -3 4 -12 1 -19z
m-4767 -60 c0 -13 -32 -6 -37 9 -3 7 3 9 16 6 12 -3 21 -10 21 -15z m121 -28
c5 -36 3 -73 -4 -77 -4 -2 -16 -1 -27 2 -22 7 -26 35 -10 66 11 20 39 26 41 9z
m342 -20 c38 -17 50 -30 72 -74 17 -35 41 -64 71 -86 54 -39 69 -66 55 -101
-13 -35 -46 -31 -80 8 -14 16 -38 37 -53 47 -16 9 -28 23 -28 30 0 8 -7 16
-15 20 -9 3 -24 26 -35 51 -13 30 -25 45 -38 45 -24 0 -42 19 -42 45 0 42 24
45 93 15z m4227 -21 c0 -5 -7 -9 -15 -9 -9 0 -15 9 -15 21 0 18 2 19 15 9 8
-7 15 -16 15 -21z m-3757 14 c12 -11 -14 -33 -39 -33 -30 0 -31 18 -1 30 28
11 32 12 40 3z m-195 -68 c12 -14 28 -25 34 -25 40 -1 103 -94 103 -150 0 -42
29 -54 54 -22 15 19 18 19 67 4 43 -13 52 -20 61 -49 12 -40 4 -42 -51 -12
-21 11 -41 18 -44 14 -3 -3 4 -25 16 -50 16 -33 29 -46 49 -50 52 -11 90 -37
112 -75 18 -32 29 -40 64 -47 39 -8 42 -11 45 -45 2 -29 8 -37 28 -42 24 -7
48 -45 35 -58 -9 -10 -149 8 -166 22 -20 16 -2 50 26 50 43 0 10 25 -49 37
-41 8 -75 23 -107 48 -26 19 -53 35 -60 35 -8 0 -26 18 -42 39 -25 35 -83 81
-83 66 0 -3 -9 -1 -20 5 -11 6 -20 19 -20 29 0 10 -9 26 -20 36 -11 10 -20 26
-20 36 0 38 -31 95 -64 116 -38 25 -56 74 -36 98 19 23 64 18 88 -10z m3892
-35 c0 -5 -4 -10 -10 -10 -5 0 -10 5 -10 10 0 6 5 10 10 10 6 0 10 -4 10 -10z
m122 -17 c23 -21 23 -55 0 -83 -26 -32 -42 -17 -42 39 0 64 9 74 42 44z m-187
-53 c3 -5 -3 -10 -14 -10 -12 0 -21 5 -21 10 0 6 6 10 14 10 8 0 18 -4 21 -10z
m373 -42 c7 -7 12 -22 12 -35 0 -13 6 -23 14 -23 19 0 22 -6 31 -58 6 -39 5
-43 -12 -40 -14 2 -18 -3 -17 -27 1 -16 5 -41 9 -54 7 -21 6 -23 -16 -16 -35
10 -40 18 -46 64 -5 37 -4 41 16 41 18 0 21 6 21 39 0 30 -5 42 -25 55 -24 16
-33 45 -18 59 9 10 17 9 31 -5z m-263 -14 c14 -9 25 -22 25 -30 0 -11 -7 -10
-35 3 -37 17 -54 43 -29 43 8 0 26 -7 39 -16z m-2941 -10 c9 -3 16 -13 16 -21
0 -21 -44 -12 -48 10 -4 18 6 21 32 11z m3140 -20 c11 -28 6 -34 -14 -22 -11
7 -20 18 -20 25 0 18 27 16 34 -3z m-135 -37 c6 -8 8 -17 4 -20 -7 -8 -33 11
-33 24 0 13 16 11 29 -4z m-3469 -22 c0 -8 -4 -15 -10 -15 -5 0 -10 7 -10 15
0 8 5 15 10 15 6 0 10 -7 10 -15z m28 -126 c-2 -6 -11 -4 -22 4 -13 10 -17 20
-12 32 6 17 8 17 22 -4 9 -12 14 -26 12 -32z m3742 9 c0 -12 -7 -10 -24 8 -9
8 -13 20 -10 26 7 11 34 -17 34 -34z m-3356 -25 c7 -17 -12 -36 -26 -27 -4 3
-8 14 -8 25 0 23 25 25 34 2z m3546 -84 c0 -6 -4 -7 -10 -4 -5 3 -10 11 -10
16 0 6 5 7 10 4 6 -3 10 -11 10 -16z m-3890 -169 c0 -11 -4 -20 -10 -20 -5 0
-10 9 -10 20 0 11 5 20 10 20 6 0 10 -9 10 -20z"></path>
<path d="M19980 7479 c0 -4 7 -9 15 -13 9 -3 15 0 15 8 0 7 -7 13 -15 13 -8 0
-15 -4 -15 -8z"></path>
<path d="M18700 7456 c0 -9 8 -12 25 -8 28 5 24 22 -6 22 -10 0 -19 -6 -19
-14z"></path>
<path d="M20143 7413 c-22 -8 -15 -43 7 -43 13 0 20 7 20 19 0 22 -9 30 -27
24z"></path>
<path d="M19412 7335 c-11 -13 -9 -15 8 -15 11 0 20 7 20 15 0 19 -11 19 -28
0z"></path>
<path d="M19257 7283 c-11 -10 13 -32 29 -26 20 8 17 33 -4 33 -10 0 -22 -3
-25 -7z"></path>
<path d="M19047 7244 c-13 -13 -7 -22 18 -27 20 -3 25 -1 23 12 -3 17 -29 26
-41 15z"></path>
<path d="M18961 7206 c-15 -18 1 -30 29 -21 24 8 26 21 4 29 -21 8 -20 8 -33
-8z"></path>
<path d="M18470 7206 c0 -2 7 -6 15 -10 8 -3 15 -1 15 4 0 6 -7 10 -15 10 -8
0 -15 -2 -15 -4z"></path>
<path d="M18270 7158 c-20 -22 -20 -23 -3 -26 28 -4 75 16 71 31 -8 22 -45 19
-68 -5z"></path>
<path d="M18110 7114 c-36 -13 -76 -24 -88 -24 -13 0 -35 -9 -49 -20 -14 -11
-35 -20 -47 -20 -28 -1 -88 -32 -94 -47 -2 -8 5 -13 20 -13 29 0 108 36 108
48 0 5 35 12 78 16 43 4 89 13 102 21 14 8 40 22 58 31 22 13 28 20 20 26 -19
11 -36 9 -108 -18z"></path>
<path d="M17730 6970 c0 -5 9 -10 19 -10 11 0 23 5 26 10 4 6 -5 10 -19 10
-14 0 -26 -4 -26 -10z"></path>
<path d="M18135 6970 c-3 -5 -1 -10 4 -10 6 0 11 5 11 10 0 6 -2 10 -4 10 -3
0 -8 -4 -11 -10z"></path>
<path d="M17661 6951 c-7 -5 -11 -14 -7 -19 9 -15 36 -4 36 14 0 16 -9 18 -29
5z"></path>
<path d="M18198 6893 c-28 -7 -22 -33 7 -33 15 0 25 6 25 14 0 18 -10 24 -32
19z"></path>
<path d="M28335 6786 c-311 -73 -561 -310 -636 -605 -20 -78 -18 -131 7 -152
18 -15 47 33 80 136 83 259 270 444 534 527 64 20 96 23 220 23 130 0 154 -3
230 -27 84 -27 213 -95 310 -163 54 -38 69 -34 40 12 -47 79 -199 178 -340
225 -85 28 -110 31 -240 34 -100 3 -164 -1 -205 -10z"></path>
<path d="M18075 6650 c3 -5 11 -10 16 -10 6 0 7 5 4 10 -3 6 -11 10 -16 10 -6
0 -7 -4 -4 -10z"></path>
<path d="M17848 6489 c-24 -14 -23 -29 3 -29 28 0 61 19 54 31 -8 12 -35 11
-57 -2z"></path>
<path d="M17735 6460 c-4 -7 -3 -16 3 -22 14 -14 57 -6 57 12 0 18 -50 26 -60
10z"></path>
<path d="M20840 5840 c0 -13 5 -20 13 -17 6 2 12 10 12 17 0 7 -6 15 -12 18
-8 2 -13 -5 -13 -18z"></path>
<path d="M28855 5248 c-176 -74 -355 -90 -557 -49 -65 14 -121 21 -125 17 -13
-13 51 -55 128 -85 175 -69 412 -53 582 37 59 33 102 76 94 96 -9 23 -42 18
-122 -16z"></path>
<path d="M23510 5053 c1 -23 11 -65 48 -188 17 -55 36 -131 42 -170 7 -38 21
-100 30 -137 10 -37 16 -69 13 -71 -2 -3 -9 -38 -14 -79 -14 -102 -57 -231
-117 -350 -2 -3 7 -4 19 -1 12 3 27 20 35 39 7 17 29 45 47 61 19 15 40 38 46
51 7 12 32 32 57 43 42 20 47 21 87 6 51 -20 125 -20 152 -1 11 8 28 14 38 14
23 0 90 -34 107 -55 11 -13 24 -15 54 -11 36 6 47 2 92 -31 29 -21 58 -51 65
-68 12 -27 19 -30 57 -30 26 0 46 -6 51 -14 5 -8 16 -11 25 -8 20 8 46 -2 46
-17 0 -6 12 -13 28 -14 15 -1 39 -7 54 -13 19 -8 32 -8 49 2 20 10 25 9 45
-15 14 -15 33 -26 48 -26 15 0 30 -8 36 -21 9 -15 18 -19 38 -14 22 4 32 -1
53 -28 14 -18 29 -42 33 -55 5 -15 15 -22 33 -22 14 0 38 -10 53 -22 16 -13
41 -31 56 -42 14 -10 35 -37 45 -60 11 -22 25 -48 31 -56 17 -20 75 -43 113
-45 45 -2 74 -14 85 -36 6 -10 21 -19 34 -19 13 0 34 -13 49 -30 15 -16 32
-30 37 -30 11 0 63 -34 88 -57 7 -7 25 -15 40 -19 15 -3 35 -9 44 -15 10 -5
28 -9 41 -9 12 0 33 -7 46 -16 17 -12 26 -13 34 -5 16 16 27 13 27 -7 0 -10 6
-27 14 -38 14 -19 15 -19 39 4 l24 22 27 -21 c23 -18 31 -20 52 -10 14 6 27
11 29 11 10 0 55 -56 55 -68 0 -25 24 -6 32 26 12 43 25 40 33 -7 4 -22 13
-45 21 -52 9 -7 22 -25 30 -41 13 -24 18 -27 35 -17 17 9 19 17 14 50 -4 23
-3 39 3 39 5 0 12 -15 15 -32 2 -18 14 -55 25 -83 12 -27 24 -62 27 -77 3 -19
12 -28 24 -28 22 0 31 19 31 67 0 46 20 39 34 -12 13 -46 26 -52 50 -26 18 20
19 19 51 -16 28 -30 35 -34 53 -24 40 21 48 14 58 -51 5 -35 14 -63 19 -63 6
0 14 19 19 43 10 48 22 53 36 16 16 -40 12 -61 -11 -67 -18 -5 -20 -11 -14
-34 9 -38 25 -55 46 -50 10 3 20 0 23 -7 3 -6 3 6 0 27 -5 31 -4 36 9 31 12
-4 16 -18 14 -57 -2 -49 0 -52 23 -55 14 -2 31 -9 38 -15 10 -7 17 -5 28 11 8
12 21 19 30 15 19 -7 51 -68 57 -112 3 -19 13 -41 23 -50 15 -15 16 -13 9 24
-13 65 -11 79 8 83 26 5 56 -25 63 -64 9 -51 29 -62 59 -34 23 22 27 22 41 8
9 -9 19 -31 23 -49 10 -48 29 -48 37 0 4 23 10 43 13 46 14 8 58 -62 65 -105
7 -47 21 -70 41 -70 8 0 11 22 11 72 -1 46 3 73 11 75 15 5 27 -68 18 -124 -6
-42 -5 -44 17 -41 17 2 24 11 28 38 4 20 9 41 13 48 4 6 -1 30 -13 54 -28 57
-26 69 8 62 23 -5 30 -1 40 20 13 30 27 33 36 10 9 -23 8 -24 -18 -34 -33 -12
-44 -85 -20 -135 21 -45 34 -36 34 24 0 26 5 52 11 58 21 21 39 3 39 -37 0
-23 7 -46 18 -56 16 -17 17 -15 20 32 6 86 34 85 47 -3 7 -49 0 -70 -20 -53
-9 8 -14 -4 -19 -54 -3 -35 -4 -71 0 -80 12 -31 24 -15 24 32 0 87 42 138 56
67 6 -36 23 -48 25 -17 2 38 -3 77 -12 80 -10 4 -13 42 -3 42 3 0 12 -7 20
-15 26 -26 54 -19 54 13 0 66 23 93 40 48 5 -13 19 -34 31 -45 21 -19 22 -24
11 -55 -9 -24 -10 -41 -2 -62 13 -32 7 -54 -14 -54 -10 0 -17 14 -21 37 -7 45
-17 65 -33 71 -9 3 -12 -19 -12 -76 l0 -79 30 -7 c17 -3 41 -1 55 4 21 8 25
16 25 49 0 22 5 51 11 65 9 19 8 31 -4 54 -9 20 -13 46 -10 75 3 27 1 47 -6
51 -16 10 -13 33 5 40 22 9 54 -21 54 -50 0 -34 18 -76 30 -69 5 3 10 24 10
45 0 45 24 77 46 59 9 -7 13 -32 11 -79 -2 -74 5 -92 28 -69 12 12 12 21 3 51
-15 48 -5 72 27 66 29 -6 29 -8 14 82 -10 60 -10 72 5 95 13 20 20 23 35 16
22 -12 31 -5 31 23 0 12 16 36 35 54 35 32 59 40 69 23 9 -14 54 0 59 18 2 10
18 21 36 24 21 4 31 12 31 24 0 14 -2 15 -9 4 -7 -11 -9 -11 -14 0 -5 12 -7
12 -15 0 -14 -19 -24 2 -16 34 3 14 10 25 15 25 5 0 9 7 9 15 0 8 9 15 20 15
17 0 20 -7 20 -45 0 -33 4 -45 15 -45 8 0 15 6 15 14 0 7 7 19 16 27 10 8 14
22 11 38 -5 27 17 59 28 40 4 -6 13 -8 21 -5 12 4 13 -5 7 -52 -12 -95 -10
-107 12 -107 18 0 20 7 20 65 0 36 -3 89 -7 117 -8 58 -6 58 47 4 l23 -24 31
31 c17 17 31 40 31 52 0 11 9 34 21 49 19 26 20 32 8 66 -13 36 -13 38 16 63
17 14 29 29 28 33 -1 4 10 10 26 14 16 3 33 16 39 30 6 14 22 27 35 30 14 4
30 17 37 31 8 13 17 24 22 24 4 0 8 11 8 24 0 13 14 41 31 62 22 29 30 47 28
74 -3 48 -1 60 10 60 5 0 11 -12 13 -27 2 -21 9 -27 33 -30 27 -3 31 0 43 37
16 54 15 80 -4 80 -18 0 -44 24 -44 40 0 8 9 10 24 6 36 -9 50 15 42 73 -7 52
-1 62 44 76 22 7 23 6 12 -7 -10 -12 -10 -21 -1 -41 10 -22 18 -26 48 -24 32
2 36 -1 42 -28 4 -16 7 -25 8 -20 0 6 15 16 31 23 23 11 30 20 30 43 0 22 -5
29 -20 29 -12 0 -20 7 -20 18 0 25 16 46 29 38 6 -4 11 0 11 8 0 10 9 16 23
16 30 0 41 9 59 47 14 28 14 33 1 46 -14 13 -13 18 3 39 15 21 27 25 72 25 58
0 76 11 70 39 -4 20 -9 21 -45 9 -17 -4 -23 -2 -23 9 0 8 -7 22 -16 30 -8 9
-11 16 -5 16 6 0 11 5 11 10 0 6 9 21 20 33 21 22 24 72 5 72 -35 1 -44 39 -9
40 36 1 114 29 114 41 0 19 -26 24 -130 24 -54 0 -129 7 -166 16 -58 13 -144
14 -653 9 -1193 -12 -3777 -11 -3931 2 -345 30 -640 166 -943 437 -59 53 -109
96 -112 96 -3 0 -5 -8 -5 -17z m5656 -800 c-10 -10 -19 5 -10 18 6 11 8 11 12
0 2 -7 1 -15 -2 -18z m-6 -62 c0 -6 -4 -13 -10 -16 -5 -3 -10 1 -10 9 0 9 5
16 10 16 6 0 10 -4 10 -9z m-450 -564 c0 -36 -23 -77 -36 -64 -5 4 -3 17 4 28
7 10 10 30 6 44 -5 19 -2 25 10 25 11 0 16 -9 16 -33z m-170 -217 c0 -5 -7
-10 -16 -10 -8 0 -12 5 -9 10 3 6 10 10 16 10 5 0 9 -4 9 -10z m-130 -179 c0
-11 -5 -23 -11 -27 -14 -8 -29 14 -22 33 8 20 33 16 33 -6z m-490 -447 c0 -31
-4 -44 -14 -44 -17 0 -27 58 -14 83 14 28 28 10 28 -39z m-750 -5 c0 -5 -4 -9
-10 -9 -5 0 -10 7 -10 16 0 8 5 12 10 9 6 -3 10 -10 10 -16z m30 -95 c0 -31
-23 -28 -28 4 -2 15 2 22 12 22 11 0 16 -9 16 -26z"></path>
<path d="M20852 4798 c6 -18 28 -21 28 -4 0 9 -7 16 -16 16 -9 0 -14 -5 -12
-12z"></path>
<path d="M20950 4620 c0 -11 5 -20 10 -20 6 0 10 9 10 20 0 11 -4 20 -10 20
-5 0 -10 -9 -10 -20z"></path>
<path d="M29015 3857 c-4 -10 -5 -21 -1 -24 10 -10 18 4 13 24 -4 17 -4 17
-12 0z"></path>
<path d="M21070 3801 c0 -11 21 -19 38 -14 21 8 13 23 -13 23 -14 0 -25 -4
-25 -9z"></path>
<path d="M16049 3273 c5 -10 22 -31 37 -48 26 -27 29 -28 32 -10 3 13 -7 29
-29 47 -38 32 -54 36 -40 11z"></path>
<path d="M21260 3250 c0 -5 5 -10 10 -10 6 0 10 5 10 10 0 6 -4 10 -10 10 -5
0 -10 -4 -10 -10z"></path>
<path d="M22504 3059 c-8 -14 11 -33 25 -25 16 10 13 36 -3 36 -8 0 -18 -5
-22 -11z"></path>
<path d="M16066 3053 c-3 -3 -3 -10 0 -14 7 -12 34 -11 34 0 0 11 -26 22 -34
14z"></path>
<path d="M26326 3002 c-8 -14 20 -46 32 -38 7 4 12 11 12 16 0 13 -38 32 -44
22z"></path>
<path d="M22350 2985 c0 -17 2 -18 24 -9 23 9 20 24 -4 24 -11 0 -20 -7 -20
-15z"></path>
<path d="M26430 2951 c0 -6 4 -13 10 -16 6 -3 7 1 4 9 -7 18 -14 21 -14 7z"></path>
<path d="M28373 2862 c-3 -12 -9 -19 -14 -16 -5 3 -9 -4 -9 -15 0 -33 28 -25
35 10 8 35 -3 55 -12 21z"></path>
<path d="M28145 2820 c-8 -13 9 -20 24 -11 10 6 9 10 -3 14 -8 3 -18 2 -21 -3z"></path>
<path d="M28216 2792 c6 -4 14 -14 17 -22 4 -10 6 -8 6 8 1 15 -5 22 -16 22
-11 0 -14 -3 -7 -8z"></path>
<path d="M26510 2695 c0 -8 9 -19 20 -25 15 -8 20 -8 20 3 0 14 -19 37 -32 37
-4 0 -8 -7 -8 -15z"></path>
<path d="M23453 2615 c-27 -31 -21 -70 8 -54 13 7 19 21 19 44 0 19 -1 35 -2
35 -2 0 -13 -11 -25 -25z"></path>
<path d="M26554 2620 c3 -14 6 -28 6 -32 0 -5 5 -8 10 -8 15 0 12 24 -6 46
-15 18 -15 18 -10 -6z"></path>
<path d="M27980 2581 c0 -10 7 -24 15 -31 12 -10 16 -9 21 4 3 9 4 23 0 31 -8
21 -36 19 -36 -4z"></path>
<path d="M27094 2514 c3 -8 6 -22 6 -30 0 -8 5 -14 10 -14 17 0 11 47 -6 54
-12 5 -15 2 -10 -10z"></path>
<path d="M27797 2476 c-10 -25 -9 -51 4 -83 10 -26 12 -27 19 -8 13 31 11 69
-3 89 -13 18 -14 18 -20 2z"></path>
<path d="M22075 2462 c-10 -10 -5 -62 6 -62 6 0 8 -8 4 -19 -4 -14 3 -24 27
-39 18 -11 36 -18 40 -16 14 9 9 33 -12 52 -17 16 -19 24 -11 45 7 19 7 28 -2
34 -14 9 -45 12 -52 5z"></path>
<path d="M27554 2335 c-8 -21 3 -45 20 -45 22 0 28 17 16 40 -13 24 -28 26
-36 5z"></path>
<path d="M23163 2264 c-8 -22 15 -43 27 -24 5 8 10 21 10 28 0 17 -30 15 -37
-4z"></path>
<path d="M27590 2208 c0 -9 5 -20 10 -23 13 -8 13 5 0 25 -8 13 -10 13 -10 -2z"></path>
<path d="M22804 1659 c-9 -16 12 -33 31 -25 14 5 15 9 5 21 -15 18 -26 19 -36
4z"></path>
<path d="M22890 1582 c0 -5 -16 -17 -35 -28 -40 -21 -45 -39 -12 -48 16 -5 29
2 50 25 16 17 26 36 24 42 -4 14 -27 22 -27 9z"></path>
<path d="M22932 1200 c0 -14 2 -19 5 -12 2 6 2 18 0 25 -3 6 -5 1 -5 -13z"></path>
<path d="M17030 1115 c0 -16 46 -43 56 -33 3 4 -1 15 -8 27 -15 24 -48 28 -48
6z"></path>
<path d="M23048 906 c-3 -17 -3 -39 1 -50 8 -19 8 -19 12 0 3 10 2 33 -1 49
l-6 30 -6 -29z"></path>
<path d="M17530 828 c0 -13 5 -30 10 -38 8 -13 13 -13 41 3 31 17 31 17 51 -8
11 -14 28 -25 38 -25 10 0 21 -6 23 -12 3 -7 6 -8 6 -3 1 6 -8 25 -19 43 -13
22 -27 32 -44 32 -13 0 -26 7 -30 15 -3 9 -19 15 -41 15 -30 0 -35 -3 -35 -22z"></path>
<path d="M17242 828 c5 -15 48 -24 48 -10 0 10 -23 22 -42 22 -5 0 -8 -6 -6
-12z"></path>
<path d="M17790 776 c0 -8 7 -16 15 -20 19 -7 20 -36 1 -36 -27 0 -28 -21 -3
-59 14 -22 43 -47 64 -57 26 -13 39 -27 41 -44 7 -49 65 -90 78 -55 12 31 -40
91 -77 87 -9 -1 -79 123 -79 139 0 11 2 11 8 2 7 -10 12 -10 27 0 17 13 17 15
-3 35 -25 25 -72 30 -72 8z"></path>
<path d="M17370 737 c0 -16 77 -93 86 -85 3 4 -9 27 -28 52 -32 44 -58 59 -58
33z"></path>
<path d="M17630 695 c0 -16 26 -55 37 -55 16 0 17 14 3 41 -9 16 -40 28 -40
14z"></path>
<path d="M23230 622 c0 -11 9 -27 20 -37 19 -17 20 -17 20 -1 0 23 -18 56 -30
56 -6 0 -10 -8 -10 -18z"></path>
<path d="M17520 601 c0 -16 58 -71 75 -71 27 0 13 32 -24 57 -36 24 -51 29
-51 14z"></path>
<path d="M17784 505 c-9 -23 31 -64 47 -48 6 6 9 21 7 34 -4 29 -45 39 -54 14z"></path>
<path d="M17650 470 c6 -11 15 -20 19 -20 5 0 7 9 4 20 -3 11 -12 20 -20 20
-11 0 -11 -4 -3 -20z"></path>
<path d="M18470 407 c0 -24 26 -51 44 -44 21 8 21 43 0 51 -26 10 -44 7 -44
-7z"></path>
<path d="M18080 382 c0 -12 19 -26 26 -19 2 2 -2 10 -11 17 -9 8 -15 8 -15 2z"></path>
<path d="M17873 303 c-32 -6 -29 -29 5 -44 16 -7 38 -27 50 -46 13 -19 31 -33
42 -33 13 0 25 -11 33 -32 16 -37 93 -112 126 -123 11 -3 21 -11 21 -16 0 -5
20 -9 45 -9 25 0 45 4 45 9 0 5 15 13 32 16 l33 8 -35 28 c-25 21 -45 29 -73
29 -29 0 -56 11 -101 39 -85 55 -106 76 -106 108 -1 21 -10 34 -36 51 -36 22
-40 23 -81 15z"></path>
<path d="M18770 281 c0 -18 21 -66 32 -72 21 -13 38 3 38 36 0 34 -13 45 -51
45 -10 0 -19 -4 -19 -9z"></path>
<path d="M24635 230 c3 -5 10 -10 16 -10 5 0 9 5 9 10 0 6 -7 10 -16 10 -8 0
-12 -4 -9 -10z"></path>
<path d="M18262 193 c2 -10 10 -18 18 -18 22 0 18 29 -3 33 -14 3 -18 -1 -15
-15z"></path>
<path d="M18350 200 c0 -5 5 -10 11 -10 5 0 7 5 4 10 -3 6 -8 10 -11 10 -2 0
-4 -4 -4 -10z"></path>
<path d="M18947 135 c-4 -8 -2 -17 3 -20 6 -4 10 -4 10 -1 0 2 3 11 6 20 3 9
2 16 -4 16 -5 0 -12 -7 -15 -15z"></path>
</g>
</svg>
